<?xml version="1.0" standalone="no"?>
<!DOCTYPE svg PUBLIC "-//W3C//DTD SVG 20010904//EN"
 "http://www.w3.org/TR/2001/REC-SVG-20010904/DTD/svg10.dtd">
<svg version="1.0" xmlns="http://www.w3.org/2000/svg"
 width="260.000000pt" height="260.000000pt" viewBox="0 0 260.000000 260.000000"
 preserveAspectRatio="xMidYMid meet">
<metadata>
Created by potrace 1.11, written by Peter Selinger 2001-2013
</metadata>
<g transform="translate(0.000000,260.000000) scale(0.100000,-0.100000)"
fill="#000000" stroke="none">
<path d="M1164 2581 c-132 -38 -246 -135 -307 -261 -98 -204 -53 -434 113
-583 66 -60 130 -93 224 -117 l71 -18 0 -112 0 -113 -255 -108 c-140 -59 -266
-112 -280 -117 -135 -58 -195 -84 -198 -86 -5 -6 21 -56 29 -56 4 0 158 63
341 141 183 78 340 143 348 146 13 4 15 -22 15 -199 -1 -188 -3 -206 -23 -243
-12 -22 -129 -215 -260 -430 l-239 -390 31 -19 c17 -10 32 -14 33 -10 2 5 65
110 141 234 75 124 185 303 242 398 94 154 106 171 118 155 7 -10 79 -126 159
-258 80 -132 174 -286 209 -343 35 -57 64 -105 64 -108 0 -2 13 -22 28 -43 29
-40 29 -40 55 -22 l27 17 -260 427 -260 426 0 207 c0 161 3 205 13 201 6 -3
162 -68 346 -146 183 -78 337 -141 341 -141 8 0 33 51 27 56 -2 2 -143 63
-313 134 -170 72 -328 139 -351 150 -24 11 -47 20 -53 20 -6 0 -10 45 -10 119
l0 118 48 7 c177 24 342 165 396 339 56 178 10 366 -121 496 -134 134 -314
182 -489 132z m241 -55 c277 -74 410 -371 280 -626 -37 -73 -120 -152 -202
-192 -63 -30 -75 -33 -168 -33 -117 0 -145 5 -215 42 -116 60 -211 195 -229
324 -9 72 -6 111 16 189 60 217 301 354 518 296z"/>
</g>
</svg>
